<svg id="Layer_1" data-name="Layer 1" xmlns="http://www.w3.org/2000/svg" viewBox="0 0 938.8 106.96"><defs><style>.cls-1,.cls-2{fill:#2a2a2a;}.cls-2{font-size:98.58px;font-family:AtkinsonHyperlegible-Bold, Atkinson Hyperlegible;font-weight:700;}.cls-3{letter-spacing:-0.03em;}.cls-4{letter-spacing:0em;}</style></defs><rect class="cls-1" x="32.11" y="0.38" width="31.86" height="11.28" rx="5.64"/><path class="cls-1" d="M105.61,476.48a4.58,4.58,0,0,0-4.44-3.39H85.35a4.58,4.58,0,0,0-4.44,3.39,56,56,0,0,1-8,17.36,12.49,12.49,0,0,0-.82,13.28c4.52,8.22,11.64,21.66,16.14,32.45a1.34,1.34,0,0,0,2.57-.52l-.22-28.73a4.46,4.46,0,1,1,5.35-.26l-.23,29a1.34,1.34,0,0,0,2.57.52c4.5-10.79,11.62-24.23,16.14-32.45a12.47,12.47,0,0,0-.82-13.28A56,56,0,0,1,105.61,476.48Z" transform="translate(-45.22 -458.18)"/><path class="cls-1" d="M78.09,528.32c-.69-1.47-1.41-3-2.14-4.43a1.59,1.59,0,0,0-2.9.12v0c-.23.56-.48,1.11-.73,1.64a1.6,1.6,0,0,1-2.63.34l-2.57-3a1.59,1.59,0,0,1,.28-2.34,14.24,14.24,0,0,0,3.94-4l.08-.13a1.56,1.56,0,0,0,0-1.55c-2.66-5.08-5.1-9.49-6.63-12.22a1.62,1.62,0,0,0-1.19-.8,10.7,10.7,0,0,0-1.39-.09,14.07,14.07,0,0,0-5.92,1.2,10.27,10.27,0,0,0-4.15,3.32,8.2,8.2,0,0,0-1.54,5,11.24,11.24,0,0,0,.81,4A15.3,15.3,0,0,0,53,518.36a1.59,1.59,0,0,1-.6,2.29,13.91,13.91,0,0,0-5,4.09,10.21,10.21,0,0,0-2.09,6,10,10,0,0,0,1.7,5.52,12.55,12.55,0,0,0,4.77,4.24,14.85,14.85,0,0,0,7,1.62,20.12,20.12,0,0,0,5.58-.86,24.42,24.42,0,0,0,5-2.17,1.6,1.6,0,0,1,2,.34l1.22,1.42a1.58,1.58,0,0,0,1.2.55h5.63a1.6,1.6,0,0,0,1.21-2.63l-3.9-4.52a1.59,1.59,0,0,1-.12-1.93,25.83,25.83,0,0,0,1.51-2.54A1.59,1.59,0,0,0,78.09,528.32Zm-15.43,6.3a9.58,9.58,0,0,1-2.82.48,6,6,0,0,1-4.13-1.43,4.3,4.3,0,0,1-1.62-3.32,4.57,4.57,0,0,1,1.09-2.84,6.8,6.8,0,0,1,2.4-1.84,1.59,1.59,0,0,1,1.91.37l4.93,5.64a1.59,1.59,0,0,1-.55,2.5A12.69,12.69,0,0,1,62.66,534.62Zm2.26-20.14a7.3,7.3,0,0,1-2,1.86,1.59,1.59,0,0,1-2-.2,9.85,9.85,0,0,1-1.77-2.25,5.5,5.5,0,0,1-.78-2.51,2.7,2.7,0,0,1,1-2.26,3.91,3.91,0,0,1,2.48-.81,4.07,4.07,0,0,1,2.85,1,3.35,3.35,0,0,1,1.12,2.54A4.63,4.63,0,0,1,64.92,514.48Z" transform="translate(-45.22 -458.18)"/><text class="cls-2" transform="translate(92.3 82.22)"><tspan class="cls-3">P</tspan><tspan class="cls-4" x="58.95" y="0">ast </tspan><tspan class="cls-3" x="235.01" y="0">P</tspan><tspan x="293.96" y="0">aper Viewer</tspan></text></svg>